<svg width="8" height="14" viewBox="0 0 8 14" fill="none" xmlns="http://www.w3.org/2000/svg">
    <path
        d="M6.33073 3.5026V10.2109C6.33073 11.5001 5.28656 12.5443 3.9974 12.5443C2.70823 12.5443 1.66406 11.5001 1.66406 10.2109V2.91927C1.66406 2.11427 2.3174 1.46094 3.1224 1.46094C3.9274 1.46094 4.58073 2.11427 4.58073 2.91927V9.04427C4.58073 9.3651 4.31823 9.6276 3.9974 9.6276C3.67656 9.6276 3.41406 9.3651 3.41406 9.04427V3.5026H2.53906V9.04427C2.53906 9.84927 3.1924 10.5026 3.9974 10.5026C4.8024 10.5026 5.45573 9.84927 5.45573 9.04427V2.91927C5.45573 1.6301 4.41156 0.585938 3.1224 0.585938C1.83323 0.585938 0.789062 1.6301 0.789062 2.91927V10.2109C0.789062 11.9843 2.22406 13.4193 3.9974 13.4193C5.77073 13.4193 7.20573 11.9843 7.20573 10.2109V3.5026H6.33073Z"
        fill="#05C3DE" />
</svg>